<?xml version="1.0" encoding="UTF-8" standalone="no"?>
<!-- Created with Inkscape (http://www.inkscape.org/) -->

<svg
   width="300mm"
   height="300mm"
   viewBox="0 0 300 300"
   version="1.1"
   id="svg5"
   xmlns="http://www.w3.org/2000/svg"
   xmlns:svg="http://www.w3.org/2000/svg">
  <defs
     id="defs2" />
  <g
     id="layer1">
    <path
       style="fill:#000000;fill-opacity:1;stroke:none;stroke-width:0.264583px;stroke-linecap:butt;stroke-linejoin:miter;stroke-opacity:0.966741"
       d="M 39.616536,163.65262 58.403771,284.7259 H 141.90259 L 162.77731,163.65262 H 144.82504 L 127.2903,270.94859 H 73.016065 L 56.316301,163.65262 Z"
       id="path857" />
    <path
       style="fill:#000000;fill-opacity:1;stroke:none;stroke-width:0.264583px;stroke-linecap:butt;stroke-linejoin:miter;stroke-opacity:1"
       d="m 65.328736,161.21997 37.577524,-15.56784 2.68411,36.50388 26.84108,4.29458 -10.19961,40.26162 -35.967055,-8.05232 3.220928,-12.3469 -13.957366,-2.6841 2.14729,-22.0097 -9.998304,1.94598 z"
       id="path972" />
    <path
       id="path2678"
       style="fill:#000000;stroke-width:0.264583"
       d="m 198.4844,5.7465648 c -2.11233,5.917e-4 -4.19758,0.1892949 -5.68323,0.5656692 -18.66766,4.729286 -25.27117,27.764368 -11.84563,41.321054 4.04133,4.080806 8.60122,6.40565 14.2369,7.258568 4.68253,0.708681 9.45315,-0.09752 14.35396,-2.426446 2.6482,-1.258454 3.96758,-2.214916 6.3256,-4.585328 4.76582,-4.790893 6.92235,-9.50124 7.33411,-16.018685 C 223.95851,19.951926 215.89372,9.0356173 204.3285,6.3087751 202.73577,5.933245 200.59671,5.7459873 198.4844,5.7465648 Z m 1.7812,54.7754742 -26.34375,0.109035 -1.7714,0.938174 c -4.43765,2.349586 -6.35704,4.407633 -14.44105,15.487041 -4.29001,5.879621 -10.20012,13.977371 -13.13381,17.99535 l -5.33379,7.305861 -18.08819,0.19663 c -17.94919,0.19532 -18.10204,0.20412 -19.9484,1.11347 -3.532651,1.73984 -5.401746,4.9595 -5.409334,9.31828 -0.0079,4.56407 2.009518,7.85465 5.892544,9.61237 1.7152,0.77641 2.48695,0.80178 24.32326,0.81016 21.60313,0.008 22.61506,-0.0235 24.05858,-0.75999 2.44327,-1.24647 5.75505,-4.55547 9.35232,-9.34481 3.23958,-4.31315 9.62056,-14.275901 10.25587,-16.012351 0.16873,-0.461197 0.39571,39.372101 0.50397,88.518481 l 0.19663,89.35693 1.04254,2.22348 c 1.72444,3.67812 5.04177,6.44292 8.89101,7.40963 5.39675,1.35533 12.01497,-1.83177 14.55866,-7.01062 l 1.09443,-2.22865 0.10557,-53.24052 0.10556,-53.23991 h 2.3463 2.34688 l 0.10666,53.04329 0.10667,53.0433 1.04254,2.22348 c 4.19378,8.94506 16.16273,10.32506 22.03463,2.54059 2.92212,-3.87386 2.70669,3.75126 2.70669,-95.62311 V 95.074709 h 2.3532 2.35321 l 0.1073,33.755141 c 0.10699,33.75303 0.10667,33.75484 0.95778,35.32931 1.80434,3.33771 4.81937,5.30867 8.57846,5.6071 4.71773,0.37454 8.21919,-1.54071 10.25243,-5.6071 l 1.18094,-2.36184 0.11756,-34.83748 c 0.12623,-37.455573 -0.024,-41.600544 -1.68034,-46.435733 -3.29848,-9.628564 -11.14721,-16.740581 -21.3127,-19.311219 -3.05019,-0.771324 -4.1255,-0.79605 -29.50943,-0.690802 z" />
  </g>
</svg>
