<?xml version="1.0" encoding="UTF-8" standalone="no"?>
<svg
   xmlns:dc="http://purl.org/dc/elements/1.1/"
   xmlns:cc="http://creativecommons.org/ns#"
   xmlns:rdf="http://www.w3.org/1999/02/22-rdf-syntax-ns#"
   xmlns:svg="http://www.w3.org/2000/svg"
   xmlns="http://www.w3.org/2000/svg"
   xmlns:xlink="http://www.w3.org/1999/xlink"
   viewBox="0 0 512 512"
   height="512"
   width="512"
   id="svg2"
   version="1.1">
  <metadata
     id="metadata8">
    <rdf:RDF>
      <cc:Work
         rdf:about="">
        <dc:format>image/svg+xml</dc:format>
        <dc:type
           rdf:resource="http://purl.org/dc/dcmitype/StillImage" />
        <dc:title></dc:title>
      </cc:Work>
    </rdf:RDF>
  </metadata>
  <defs
     id="defs6">
    <linearGradient
       id="linearGradient2251">
      <stop
         style="stop-color:#000000;stop-opacity:1;"
         offset="0"
         id="stop2247" />
      <stop
         style="stop-color:#000000;stop-opacity:0;"
         offset="1"
         id="stop2249" />
    </linearGradient>
    <linearGradient
       xlink:href="#linearGradient2251"
       id="linearGradient2253"
       x1="35.24903"
       y1="321.97492"
       x2="342.77288"
       y2="321.97492"
       gradientUnits="userSpaceOnUse" />
  </defs>
  <path
     style="fill:#ffffff;fill-opacity:1;stroke-width:2.68672;stroke-miterlimit:4;stroke-dasharray:none"
     d="m 303.44382,425.97511 c 0,0 -271.294272,-129.28549 -271.543362,-129.38548 -0.37026,-0.14863 14.068916,-51.55612 30.184266,-74.86308 5.421005,-7.84017 49.831996,-16.94582 76.361946,-37.75478 26.52994,-20.80895 41.70484,-54.40154 41.70484,-54.40154 l 305.3822,132.62292 -46.30802,61.58322 -86.85413,37.30613 z"
     id="path2283" />
  <path
     id="path4491"
     d="m 62.238069,220.60918 -0.354673,0.7345 286.717784,142.33149 0.35467,-0.73448 z"
     style="color:#000000;font-style:normal;font-variant:normal;font-weight:normal;font-stretch:normal;font-size:medium;line-height:normal;font-family:sans-serif;font-variant-ligatures:normal;font-variant-position:normal;font-variant-caps:normal;font-variant-numeric:normal;font-variant-alternates:normal;font-feature-settings:normal;text-indent:0;text-align:start;text-decoration:none;text-decoration-line:none;text-decoration-style:solid;text-decoration-color:#000000;letter-spacing:normal;word-spacing:normal;text-transform:none;writing-mode:lr-tb;direction:ltr;text-orientation:mixed;dominant-baseline:auto;baseline-shift:baseline;text-anchor:start;white-space:normal;shape-padding:0;clip-rule:nonzero;display:inline;overflow:visible;visibility:visible;opacity:1;isolation:auto;mix-blend-mode:normal;color-interpolation:sRGB;color-interpolation-filters:linearRGB;solid-color:#000000;solid-opacity:1;vector-effect:none;fill:#000000;fill-opacity:1;fill-rule:nonzero;stroke:none;stroke-width:0.812282px;stroke-linecap:butt;stroke-linejoin:miter;stroke-miterlimit:4;stroke-dasharray:none;stroke-dashoffset:0;stroke-opacity:1;color-rendering:auto;image-rendering:auto;shape-rendering:auto;text-rendering:auto;enable-background:accumulate" />
  <path
     id="path4493"
     d="m 137.07726,186.46176 -0.32788,0.74726 302.47631,136.56735 0.32945,-0.74727 z"
     style="color:#000000;font-style:normal;font-variant:normal;font-weight:normal;font-stretch:normal;font-size:medium;line-height:normal;font-family:sans-serif;font-variant-ligatures:normal;font-variant-position:normal;font-variant-caps:normal;font-variant-numeric:normal;font-variant-alternates:normal;font-feature-settings:normal;text-indent:0;text-align:start;text-decoration:none;text-decoration-line:none;text-decoration-style:solid;text-decoration-color:#000000;letter-spacing:normal;word-spacing:normal;text-transform:none;writing-mode:lr-tb;direction:ltr;text-orientation:mixed;dominant-baseline:auto;baseline-shift:baseline;text-anchor:start;white-space:normal;shape-padding:0;clip-rule:nonzero;display:inline;overflow:visible;visibility:visible;opacity:1;isolation:auto;mix-blend-mode:normal;color-interpolation:sRGB;color-interpolation-filters:linearRGB;solid-color:#000000;solid-opacity:1;vector-effect:none;fill:#000000;fill-opacity:1;fill-rule:nonzero;stroke:none;stroke-width:0.812282px;stroke-linecap:butt;stroke-linejoin:miter;stroke-miterlimit:4;stroke-dasharray:none;stroke-dashoffset:0;stroke-opacity:1;color-rendering:auto;image-rendering:auto;shape-rendering:auto;text-rendering:auto;enable-background:accumulate" />
  <path
     id="path4487"
     d="m 387.65956,289.42651 c -1.94622,-0.97237 -3.1433,-2.64589 -5.10348,-7.13469 -8.54809,-19.57499 -22.11175,-33.11523 -40.70994,-40.63966 -18.44377,-7.46193 -45.17603,-10.89827 -63.83313,-8.20549 -14.58773,2.10545 -29.97848,8.63031 -45.59468,19.32972 -5.10477,3.49753 -13.82122,9.46258 -19.36989,13.25569 -33.61355,22.97845 -64.63742,27.67657 -81.7871,12.38552 -8.2999,-7.40037 -11.49277,-20.51223 -7.90692,-32.4706 3.9064,-13.02737 15.60443,-24.80969 32.6793,-32.91476 12.41738,-5.89427 17.59014,-6.07378 20.33071,-0.70553 2.79396,5.47282 0.38879,11.03519 -5.78707,13.38365 -17.34513,6.59572 -30.50699,18.17743 -31.5761,27.78521 -0.72669,6.53063 3.27829,13.46882 9.3434,16.18642 10.64413,4.76931 35.27819,-3.82564 57.80436,-20.16826 16.00677,-11.61283 23.65204,-16.42649 34.51203,-21.7297 19.61444,-9.57821 35.04856,-13.287 55.11294,-13.24356 15.77309,0.0342 27.44182,1.92307 41.71067,6.75205 30.81555,10.42887 50.27367,28.09211 61.52301,55.84793 2.39236,5.90275 1.44825,10.16699 -2.73625,12.35888 -2.97651,1.55914 -5.38626,1.53874 -8.61186,-0.0728 z"
     style="fill:#000000;stroke-width:0.812282" />
  <path
     id="path4489"
     d="m 179.06583,121.45296 c -1.94478,-0.0429 -3.78517,0.88915 -4.91813,2.49087 l -41.09953,58.10939 -73.406308,33.48159 c -1.309851,0.59717 -2.35924,1.65843 -2.950881,2.98427 l -35.018063,78.48191 c -1.338329,3.00057 -0.02499,6.53217 2.935117,7.89259 L 301.69605,432.15046 c 2.56491,1.17736 5.59374,0.35181 7.22902,-1.97036 l 43.70047,-62.05806 89.11438,-39.24735 c 0.89117,-0.39278 1.67259,-1.00274 2.27464,-1.77555 l 50.77817,-65.17965 c 2.44746,-3.14308 -2.47168,-9.25139 -2.47168,-9.25139 0,0 -239.14284,-98.02775 -310.97112,-130.69302 -0.71922,-0.32707 -1.49592,-0.50461 -2.2841,-0.52212 z m 1.85376,13.41084 299.70513,125.97471 -44.94261,57.68944 -89.25311,39.30802 c -0.98011,0.43188 -1.82578,1.12568 -2.44646,2.00708 L 302.14688,419.25216 34.835233,296.48525 66.511487,225.49195 139.33298,192.27701 c 0.94754,-0.43198 1.76545,-1.11009 2.37079,-1.96556 z"
     style="color:#000000;font-style:normal;font-variant:normal;font-weight:normal;font-stretch:normal;font-size:medium;line-height:normal;font-family:sans-serif;font-variant-ligatures:normal;font-variant-position:normal;font-variant-caps:normal;font-variant-numeric:normal;font-variant-alternates:normal;font-feature-settings:normal;text-indent:0;text-align:start;text-decoration:none;text-decoration-line:none;text-decoration-style:solid;text-decoration-color:#000000;letter-spacing:normal;word-spacing:normal;text-transform:none;writing-mode:lr-tb;direction:ltr;text-orientation:mixed;dominant-baseline:auto;baseline-shift:baseline;text-anchor:start;white-space:normal;shape-padding:0;clip-rule:nonzero;display:inline;overflow:visible;visibility:visible;opacity:1;isolation:auto;mix-blend-mode:normal;color-interpolation:sRGB;color-interpolation-filters:linearRGB;solid-color:#000000;solid-opacity:1;vector-effect:none;fill:#000000;fill-opacity:1;fill-rule:nonzero;stroke:none;stroke-width:11.8593;stroke-linecap:butt;stroke-linejoin:round;stroke-miterlimit:4;stroke-dasharray:none;stroke-dashoffset:0;stroke-opacity:1;color-rendering:auto;image-rendering:auto;shape-rendering:auto;text-rendering:auto;enable-background:accumulate" />
</svg>
