<?xml version="1.0" standalone="no"?>
<!DOCTYPE svg PUBLIC "-//W3C//DTD SVG 20010904//EN"
 "http://www.w3.org/TR/2001/REC-SVG-20010904/DTD/svg10.dtd">
<svg version="1.0" xmlns="http://www.w3.org/2000/svg"
 width="700.000000pt" height="700.000000pt" viewBox="0 0 700.000000 700.000000"
 preserveAspectRatio="xMidYMid meet">
<metadata>
Created by potrace 1.14, written by Peter Selinger 2001-2017
</metadata>
<g transform="translate(0.000000,700.000000) scale(0.100000,-0.100000)"
fill="#000000" stroke="none">
<path d="M4515 6854 c-349 -72 -552 -459 -412 -784 136 -314 490 -442 796
-288 123 62 236 194 281 328 29 84 35 221 14 309 -44 185 -178 342 -351 410
-92 36 -227 46 -328 25z"/>
<path d="M4005 5555 c-72 -40 -110 -75 -186 -170 -54 -67 -220 -290 -294 -395
-11 -16 -78 -108 -148 -204 l-128 -176 -202 -1 c-111 0 -299 -2 -419 -4 -236
-4 -257 -9 -321 -64 -90 -80 -95 -257 -9 -346 70 -72 47 -70 632 -72 591 -2
566 -5 651 74 80 74 226 273 337 458 23 39 42 63 43 55 1 -26 9 -1983 13
-3085 l3 -1060 26 -44 c34 -59 80 -106 135 -139 41 -24 57 -27 132 -27 73 0
92 4 136 27 59 31 115 86 146 144 l21 39 3 1230 c1 677 3 1237 3 1245 1 12 12
15 49 14 26 -1 50 -2 54 -3 3 0 7 -557 8 -1237 l1 -1236 25 -50 c73 -145 234
-212 378 -158 90 34 167 113 180 185 15 81 18 451 19 2263 l1 1962 56 0 55 0
2 -633 c2 -931 2 -927 23 -974 65 -147 291 -181 397 -59 18 20 41 55 51 79 18
40 19 79 17 902 -2 473 -5 880 -8 905 -26 208 -168 406 -368 510 -151 78 -153
79 -847 77 l-614 -1 -53 -31z"/>
<path d="M2310 3563 c-549 -226 -767 -317 -776 -324 -7 -6 -8 -30 -3 -71 4
-35 11 -94 14 -133 4 -38 8 -83 10 -100 5 -33 13 -109 20 -169 2 -21 6 -40 9
-43 2 -3 40 2 83 11 43 9 93 18 112 21 l33 6 -6 -68 c-4 -37 -9 -89 -12 -115
-2 -27 -6 -72 -9 -100 -3 -29 -8 -78 -10 -108 -3 -30 -8 -69 -11 -86 -5 -36
-14 -33 200 -74 61 -12 113 -23 117 -25 3 -3 0 -26 -7 -52 -64 -239 -63 -232
-44 -238 10 -3 27 -8 37 -10 10 -2 61 -13 113 -25 52 -12 124 -28 160 -35 36
-8 164 -37 285 -64 121 -27 223 -46 226 -43 3 4 18 57 33 117 14 61 31 124 36
140 5 17 43 167 85 335 42 168 78 312 81 322 5 17 -6 21 -91 33 -22 3 -92 14
-155 25 -63 10 -133 21 -155 25 -73 10 -99 15 -162 26 l-63 11 -1 47 c-1 25
-2 57 -4 71 -1 14 -5 66 -9 115 -14 198 -16 232 -21 285 -3 30 -8 100 -11 155
-7 124 -11 165 -16 170 -1 2 -41 -12 -88 -32z"/>
<path d="M959 3182 l-35 -3 17 -109 c10 -59 21 -128 24 -152 8 -56 13 -91 25
-158 5 -30 12 -77 15 -105 4 -27 8 -57 10 -65 4 -12 27 -164 50 -315 2 -16 11
-73 19 -125 9 -52 18 -113 21 -135 4 -22 8 -51 10 -65 3 -14 7 -43 10 -65 3
-22 8 -51 11 -65 2 -14 6 -41 9 -60 2 -19 13 -91 24 -160 11 -69 22 -141 25
-160 14 -90 66 -419 71 -455 4 -22 8 -51 10 -65 12 -76 47 -299 50 -320 23
-161 37 -235 44 -240 7 -4 1919 -5 1941 -1 3 1 6 9 7 19 0 9 4 35 7 57 4 22 9
54 12 70 3 17 7 37 9 45 2 8 6 33 10 55 3 22 10 67 16 100 11 61 13 70 24 140
4 22 9 49 11 60 11 66 105 613 108 630 2 11 6 36 10 55 3 19 8 49 11 65 3 17
19 109 36 205 17 96 32 191 35 210 2 19 6 42 9 50 2 8 6 29 9 45 3 17 12 73
21 125 9 52 18 109 21 125 2 17 25 145 49 285 48 274 54 311 60 350 2 14 6 36
9 50 3 14 6 36 8 50 l3 25 -207 3 -206 2 -6 -27 c-5 -26 -18 -101 -30 -178 -3
-16 -21 -124 -40 -240 -19 -115 -37 -223 -39 -240 -14 -83 -28 -173 -33 -200
-3 -16 -7 -41 -9 -55 -9 -64 -17 -109 -25 -155 -5 -27 -12 -70 -15 -95 -3 -25
-7 -52 -10 -60 -2 -8 -6 -33 -10 -55 -3 -22 -10 -67 -16 -100 -6 -33 -12 -69
-14 -80 -2 -17 -11 -72 -20 -125 -6 -35 -17 -102 -20 -123 -5 -35 -15 -99 -21
-137 -4 -19 -8 -47 -10 -62 -2 -16 -15 -97 -29 -180 -14 -84 -28 -166 -31
-183 -2 -16 -9 -57 -15 -90 -6 -33 -12 -71 -14 -84 -2 -13 -6 -26 -9 -28 -4
-4 -1156 -7 -1247 -4 -12 1 -19 15 -24 53 -4 29 -8 60 -10 68 -2 8 -6 35 -9
60 -4 25 -11 70 -16 100 -5 30 -12 73 -15 95 -3 22 -7 47 -10 55 -2 8 -6 38
-10 65 -3 28 -15 106 -26 175 -25 157 -27 166 -34 215 -3 23 -8 52 -10 65 -3
14 -7 43 -9 65 -3 22 -7 54 -10 70 -5 27 -39 239 -50 310 -2 17 -9 62 -16 100
-15 96 -13 85 -51 330 -23 157 -25 169 -49 320 -11 66 -22 136 -24 155 -3 19
-11 72 -18 117 l-12 82 -160 3 c-89 2 -177 2 -197 0z"/>
</g>
</svg>
