<?xml version="1.0" standalone="no"?>
<!DOCTYPE svg PUBLIC "-//W3C//DTD SVG 20010904//EN"
 "http://www.w3.org/TR/2001/REC-SVG-20010904/DTD/svg10.dtd">
<svg version="1.0" xmlns="http://www.w3.org/2000/svg"
 width="700.000000pt" height="700.000000pt" viewBox="0 0 700.000000 700.000000"
 preserveAspectRatio="xMidYMid meet">
<metadata>
Created by potrace 1.14, written by Peter Selinger 2001-2017
</metadata>
<g transform="translate(0.000000,700.000000) scale(0.100000,-0.100000)"
fill="#000000" stroke="none">
<path d="M3410 6389 c-118 -27 -318 -72 -445 -99 -358 -78 -701 -177 -953
-276 -148 -59 -182 -79 -182 -111 0 -21 12 -30 88 -65 l87 -41 -85 -28 c-129
-44 -289 -110 -297 -123 -19 -30 -35 -752 -20 -882 l9 -71 -69 -38 c-139 -77
-240 -151 -326 -236 -49 -49 -87 -94 -85 -100 10 -31 37 -33 115 -10 179 55
252 72 329 78 l82 6 7 -129 c5 -71 5 -309 1 -529 -7 -398 -7 -401 18 -535 29
-158 41 -132 -114 -259 -127 -103 -342 -292 -427 -375 -62 -59 -80 -100 -50
-111 7 -3 53 11 102 32 85 35 97 37 220 40 111 3 142 0 215 -19 79 -22 85 -25
83 -48 -11 -140 -23 -421 -18 -445 3 -16 14 -37 24 -45 10 -8 56 -44 102 -80
46 -35 129 -102 184 -148 55 -46 161 -127 235 -180 74 -53 188 -136 252 -184
64 -48 159 -113 210 -144 51 -31 158 -101 237 -157 147 -103 251 -166 356
-217 75 -36 321 -131 356 -137 18 -3 43 8 93 42 38 25 121 78 185 117 64 39
188 122 276 184 88 61 230 155 315 207 242 147 271 166 412 274 230 177 255
196 357 283 118 100 110 69 86 357 -9 98 -15 218 -13 268 l3 90 100 63 c55 35
148 87 207 117 150 77 153 99 21 176 -43 26 -125 70 -183 99 -58 29 -109 58
-113 64 -4 6 -6 157 -4 336 5 348 7 369 77 749 30 164 32 185 28 355 -4 156
-8 197 -33 296 -25 102 -28 134 -29 285 -1 94 3 235 8 315 7 126 7 147 -7 158
-8 7 -68 24 -134 38 -65 13 -122 26 -127 27 -5 2 8 14 29 27 65 40 105 80 105
105 0 29 -8 31 -131 44 -53 6 -134 22 -180 35 -46 13 -129 36 -183 50 -157 42
-653 276 -874 413 -171 106 -243 143 -282 142 -19 0 -132 -23 -250 -50z m445
-125 c173 -104 488 -265 661 -340 233 -99 493 -174 611 -174 39 0 74 -4 77 -9
7 -11 -101 -65 -264 -132 -139 -56 -159 -67 -380 -196 -343 -200 -578 -315
-780 -383 -70 -24 -92 -18 -222 57 -222 128 -1167 604 -1426 718 -78 35 -154
71 -169 80 l-26 18 24 12 c59 30 308 118 454 161 236 69 276 79 550 139 138
31 283 65 324 76 113 32 300 67 356 68 46 1 63 -7 210 -95z m-1462 -660 c161
-80 330 -165 377 -188 123 -61 713 -367 725 -376 26 -19 217 -100 238 -100 13
0 126 43 253 95 226 94 378 174 696 366 79 47 176 95 252 124 l125 48 113 -17
c116 -16 193 -34 185 -42 -2 -2 -82 -33 -178 -68 -252 -92 -650 -253 -899
-363 -274 -122 -490 -203 -539 -203 -20 0 -141 33 -267 74 -126 41 -292 94
-369 119 -176 56 -336 119 -524 207 -80 38 -220 94 -311 125 -90 31 -173 61
-183 67 -11 5 -92 36 -180 69 -88 32 -165 63 -170 68 -11 11 307 138 351 140
7 1 144 -65 305 -145z m-592 -82 c53 -22 154 -67 225 -100 71 -33 183 -76 249
-97 66 -20 187 -69 270 -107 188 -89 381 -164 555 -218 318 -98 537 -170 558
-185 41 -30 13 -33 -65 -8 -80 25 -276 73 -303 73 -42 0 158 -89 314 -140 l68
-22 -5 -40 c-3 -22 -7 -41 -9 -43 -4 -5 -43 9 -589 213 -441 164 -512 193
-887 358 -156 69 -330 143 -385 165 -56 23 -105 46 -109 52 -4 7 -8 43 -8 81
0 51 3 67 13 63 6 -3 55 -23 108 -45z m3584 -159 c-3 -54 -8 -112 -11 -129 -5
-34 53 -10 -799 -327 -110 -41 -299 -119 -420 -172 -199 -88 -386 -165 -400
-165 -3 0 -5 24 -5 53 l0 53 48 12 c76 21 271 101 357 148 86 46 126 73 110
74 -24 0 -320 -102 -412 -143 l-103 -46 0 24 c0 21 14 32 98 74 53 27 135 64
182 84 47 19 168 72 270 117 180 80 1066 440 1083 440 4 0 5 -44 2 -97z
m-3545 -58 c58 -23 222 -94 365 -158 143 -63 314 -136 380 -162 146 -58 795
-301 957 -358 l117 -42 3 -133 c3 -120 1 -132 -14 -132 -57 0 -591 214 -948
380 -85 39 -231 103 -323 141 -189 78 -248 107 -392 189 -55 32 -149 83 -208
115 -103 55 -109 59 -104 85 3 15 9 50 13 79 8 60 -4 60 154 -4z m101 -303
l187 -105 26 -64 c14 -35 26 -68 26 -73 0 -5 -37 7 -82 26 -46 20 -162 62
-258 95 -96 33 -177 64 -181 71 -7 10 -1 160 7 186 5 16 30 3 275 -136z m3423
101 c-6 -30 -9 -31 -193 -88 -223 -69 -553 -199 -826 -327 -272 -128 -299
-144 -140 -87 70 26 97 31 138 26 51 -5 114 -24 106 -31 -2 -2 -159 -70 -349
-151 -190 -81 -348 -149 -352 -152 -5 -2 -8 47 -8 110 l0 114 78 28 c42 15
187 76 322 135 135 59 281 121 325 138 75 29 842 314 875 325 23 7 31 -6 24
-40z m6 -101 c0 -27 -8 -32 -128 -85 -159 -70 -284 -118 -290 -112 -3 2 13 28
34 56 39 52 41 53 199 110 88 32 166 58 173 58 7 1 12 -11 12 -27z m16 -143
c7 -30 13 -62 14 -72 0 -19 -4 -21 -295 -147 -99 -43 -227 -99 -284 -124 -57
-26 -105 -45 -108 -42 -2 2 15 30 40 63 24 32 65 88 90 124 l46 66 148 58 c81
32 186 76 233 96 47 21 89 37 94 36 6 -2 15 -28 22 -58z m-3576 -13 c132 -42
373 -138 397 -158 15 -12 125 -220 119 -225 -9 -9 -446 172 -588 243 -57 29
-68 38 -68 59 0 14 2 25 4 25 2 0 86 -29 187 -64 195 -67 338 -111 323 -97
-17 15 -307 135 -413 171 -98 32 -106 37 -109 63 -2 15 0 27 5 27 4 0 69 -20
143 -44z m3130 30 c0 -4 -236 -324 -250 -339 -4 -5 -46 14 -93 41 -47 27 -111
57 -143 67 -49 15 -54 19 -38 28 30 18 498 206 512 207 6 0 12 -2 12 -4z
m-2664 -42 c187 -75 374 -156 374 -163 0 -4 -18 -25 -41 -46 -22 -22 -73 -79
-111 -127 -39 -49 -72 -88 -74 -88 -7 0 -107 176 -158 279 -53 104 -88 181
-82 181 1 0 42 -16 92 -36z m3150 -139 c3 -14 4 -31 1 -37 -2 -7 -89 -48 -193
-91 -187 -77 -472 -212 -424 -201 42 10 444 162 525 199 86 39 105 43 105 18
0 -13 -60 -47 -223 -127 -582 -285 -996 -484 -1142 -551 -88 -39 -188 -86
-222 -104 -34 -17 -67 -31 -73 -31 -6 0 -10 38 -10 100 l0 100 38 24 c123 77
445 225 1482 679 58 26 111 46 117 47 7 0 15 -11 19 -25z m-3421 -157 c66 -28
155 -63 197 -79 95 -35 154 -64 191 -95 16 -13 35 -24 44 -24 8 0 65 -26 126
-59 62 -32 157 -76 212 -96 55 -21 214 -83 353 -138 140 -54 304 -114 365
-133 62 -19 136 -44 165 -55 50 -20 52 -23 51 -58 0 -20 -6 -61 -12 -91 -11
-50 -14 -55 -36 -52 -14 1 -144 60 -290 131 -287 139 -350 167 -481 213 -46
17 -150 59 -230 95 -80 35 -210 87 -290 115 -160 56 -363 140 -541 225 -130
61 -122 51 -135 178 l-7 66 99 -46 c54 -26 153 -69 219 -97z m-367 20 c7 -45
13 -82 14 -83 2 -1 17 -10 33 -18 29 -16 27 -16 -76 -17 -89 0 -126 -6 -234
-35 -70 -19 -130 -33 -133 -30 -5 5 69 73 127 116 54 40 234 149 247 149 6 0
16 -36 22 -82z m1282 -6 c102 -44 212 -92 245 -107 79 -36 435 -162 479 -170
32 -6 36 -11 45 -53 19 -93 24 -162 11 -162 -6 0 -132 58 -278 129 -330 159
-645 302 -734 333 -38 12 -68 28 -68 34 0 16 92 86 105 80 5 -2 93 -40 195
-84z m1673 -31 c41 -27 83 -51 93 -53 12 -2 -16 -18 -71 -42 -172 -74 -611
-278 -722 -336 l-112 -59 -5 32 c-2 18 -8 65 -13 105 l-9 74 46 23 c56 28 697
303 711 304 4 1 40 -21 82 -48z m-1931 -37 c110 -40 399 -170 718 -324 157
-76 295 -141 308 -144 20 -7 22 -14 22 -68 0 -53 -2 -59 -17 -53 -10 3 -88 29
-173 57 -85 28 -234 82 -330 120 -96 39 -236 93 -310 120 -145 53 -289 118
-358 162 l-43 27 18 30 c25 42 73 99 83 99 5 0 42 -12 82 -26z m2776 -83 c-2
-65 -8 -114 -15 -123 -7 -8 -97 -54 -200 -103 -103 -48 -300 -142 -438 -208
-137 -66 -299 -141 -360 -167 -216 -94 -571 -253 -638 -286 l-67 -34 6 42 c4
24 10 51 14 61 4 13 102 64 286 151 238 112 418 206 349 181 -147 -53 -378
-145 -484 -193 -121 -56 -132 -59 -129 -39 4 27 72 66 298 167 208 93 671 317
895 432 170 87 464 227 479 228 4 0 7 -49 4 -109z m-3616 -32 c51 -12 158 -49
238 -84 80 -34 205 -83 279 -109 73 -25 211 -80 305 -121 94 -40 210 -88 258
-104 107 -38 377 -160 541 -244 67 -35 146 -73 176 -85 l53 -22 -7 -47 c-4
-27 -8 -49 -10 -51 -2 -2 -52 21 -111 51 -60 30 -165 78 -234 107 -69 29 -190
83 -270 120 -80 38 -215 94 -300 125 -85 32 -211 83 -280 115 -69 31 -181 79
-250 105 -69 26 -193 76 -277 111 -84 35 -157 64 -163 64 -19 0 -50 40 -50 65
0 14 2 25 4 25 3 0 46 -10 98 -21z m116 -183 c98 -40 218 -88 267 -106 50 -18
151 -61 225 -95 110 -51 397 -165 415 -165 2 0 91 -40 197 -89 106 -48 259
-116 340 -151 81 -34 176 -79 210 -99 l63 -37 -4 -79 c-2 -44 -5 -82 -7 -84
-10 -11 -442 170 -605 254 -199 101 -395 186 -679 292 -191 71 -372 149 -521
224 l-96 48 -7 47 c-11 80 -8 114 10 114 9 0 95 -33 192 -74z m3472 5 c0 -41
-30 -176 -42 -188 -7 -6 -121 -60 -253 -118 -132 -59 -341 -160 -465 -225
-124 -65 -286 -143 -360 -175 -74 -31 -226 -104 -338 -161 -111 -57 -209 -104
-217 -104 -11 0 -15 12 -15 48 l0 47 63 24 c135 52 597 288 597 306 0 8 -366
-153 -496 -218 -84 -42 -154 -73 -158 -70 -3 4 -6 21 -6 38 0 29 6 34 88 77
71 38 577 266 632 286 14 5 342 159 775 365 99 47 183 86 188 86 4 1 7 -8 7
-18z m-3293 -316 c55 -24 159 -65 230 -90 250 -91 524 -208 655 -281 82 -45
232 -113 391 -176 l257 -103 0 -122 c0 -86 -3 -123 -12 -123 -6 0 -101 47
-212 104 -111 57 -309 151 -441 209 -261 115 -453 206 -670 320 -77 40 -195
97 -263 126 -68 28 -165 72 -217 96 l-95 44 0 85 0 85 138 -65 c75 -36 183
-85 239 -109z m3253 54 c0 -5 -5 -29 -11 -52 l-10 -43 -417 -203 c-390 -191
-797 -403 -1078 -562 -67 -38 -125 -69 -128 -69 -3 0 -6 38 -6 83 l0 84 54 18
53 18 57 -33 c48 -27 62 -31 81 -22 41 19 688 422 824 514 106 71 177 109 345
183 116 52 217 94 224 94 6 1 12 -4 12 -10z m-3325 -236 c94 -41 238 -111 322
-155 183 -96 390 -195 658 -312 110 -48 297 -138 415 -199 l215 -112 9 -48 c4
-26 6 -50 4 -52 -2 -3 -68 29 -146 70 -78 41 -144 75 -147 75 -5 0 -396 186
-650 310 -271 132 -401 192 -535 245 -290 116 -455 192 -454 209 0 9 1 36 2
61 l2 44 68 -30 c37 -17 144 -65 237 -106z m3290 5 c-4 -40 -12 -78 -18 -85
-20 -19 -271 -160 -497 -278 -457 -239 -664 -351 -908 -493 -90 -52 -165 -92
-167 -90 -3 3 -9 45 -14 94 -9 78 -8 91 7 102 22 17 318 182 562 314 213 116
1007 507 1029 508 10 0 12 -15 6 -72z m-3413 -119 c90 -39 213 -91 273 -114
112 -44 342 -151 770 -360 132 -64 281 -135 330 -157 50 -21 154 -74 232 -116
l143 -77 0 -92 c0 -51 -2 -93 -5 -93 -3 0 -49 25 -103 56 -53 31 -207 111
-342 177 -135 65 -306 152 -380 193 -74 40 -252 125 -395 189 -143 63 -362
166 -487 228 l-227 112 -1 63 c0 48 3 62 15 62 8 0 87 -32 177 -71z m3396
-184 c-2 -1 -150 -76 -330 -167 l-328 -166 50 57 c175 198 171 194 395 319
l210 117 3 -79 c2 -43 2 -80 0 -81z m-919 81 c-2 -2 -71 -45 -154 -96 -82 -51
-182 -115 -222 -142 -40 -26 -78 -48 -85 -48 -15 0 -65 37 -58 43 58 46 562
283 519 243z m-2473 -97 c99 -50 305 -147 459 -216 154 -68 332 -152 395 -186
63 -33 261 -134 440 -224 179 -89 353 -181 388 -203 l64 -42 -7 -51 c-4 -29
-9 -54 -11 -56 -8 -9 -641 275 -689 309 -5 4 -127 67 -270 140 -311 159 -593
306 -807 421 l-158 84 0 58 c0 31 4 57 9 57 5 0 89 -41 187 -91z m3394 -94 c0
-30 1 -58 3 -62 1 -4 -55 -40 -125 -80 -112 -63 -227 -124 -776 -410 -147 -76
-146 -72 30 107 71 73 135 128 173 150 77 44 678 349 688 350 4 0 7 -25 7 -55z
m-3355 -105 c229 -124 1047 -543 1225 -627 74 -36 205 -94 290 -130 85 -36
161 -70 168 -75 18 -15 11 -218 -8 -218 -3 0 -78 43 -166 96 -250 152 -307
182 -488 264 -298 135 -667 310 -791 375 -66 35 -167 82 -224 105 -140 55
-180 77 -191 103 -11 25 -40 178 -40 208 0 17 3 18 23 8 12 -7 103 -56 202
-109z m2769 38 c-16 -18 -81 -89 -144 -158 -63 -69 -189 -202 -279 -297 l-163
-172 -42 21 c-63 32 -212 126 -225 141 -9 12 0 21 50 51 117 70 810 444 823
445 6 1 -4 -14 -20 -31z m596 -140 c0 -57 0 -57 -42 -82 -185 -105 -564 -315
-763 -421 -132 -70 -316 -171 -409 -223 -165 -93 -351 -182 -381 -182 -11 0
-15 12 -14 48 2 90 0 88 189 189 96 52 195 103 220 115 25 11 52 26 60 33 19
16 202 115 445 240 252 130 501 262 600 318 56 32 82 42 87 34 4 -7 8 -38 8
-69z m-3601 -263 l1 -60 68 -33 c37 -18 103 -51 147 -74 109 -55 507 -289 502
-295 -10 -9 -346 73 -565 138 -129 39 -268 77 -309 85 -89 17 -212 18 -283 3
-28 -6 -53 -9 -55 -7 -5 4 212 202 308 281 34 28 87 74 117 101 l55 49 6 -64
c4 -35 7 -91 8 -124z m516 -22 c110 -55 324 -158 475 -228 433 -200 482 -225
710 -362 211 -128 215 -130 213 -162 0 -18 -4 -35 -8 -39 -3 -3 -99 41 -213
100 -114 58 -285 140 -379 182 -95 42 -230 103 -300 136 -182 87 -171 71 32
-45 28 -16 226 -116 440 -223 215 -107 395 -198 401 -203 11 -9 2 -94 -11
-107 -6 -6 -46 12 -390 172 -148 70 -304 146 -345 170 -41 24 -142 78 -225
121 -82 43 -247 135 -365 204 -118 69 -276 157 -350 195 -129 68 -135 72 -138
104 l-3 34 133 -70 c116 -61 267 -125 348 -147 14 -3 -88 53 -226 126 l-252
132 -5 51 c-3 28 -3 54 -1 57 7 11 254 -95 459 -198z m3272 146 c59 -34 130
-75 156 -91 l48 -31 -38 -22 c-21 -12 -108 -62 -193 -112 -85 -50 -220 -128
-299 -173 -154 -87 -624 -398 -886 -585 -233 -166 -201 -157 -317 -88 -75 45
-94 61 -85 70 13 12 344 207 527 311 63 35 176 104 250 152 136 88 589 359
666 398 23 12 44 28 48 37 3 9 6 57 6 106 0 49 2 89 4 89 3 0 53 -27 113 -61z
m-187 -54 l0 -74 -72 -42 c-184 -106 -415 -246 -545 -328 -79 -50 -216 -133
-305 -185 -90 -51 -271 -158 -403 -236 -337 -200 -325 -194 -325 -178 0 7 10
70 22 140 l21 127 61 27 c96 42 307 148 352 177 22 14 196 108 385 210 189
102 445 242 569 311 124 69 228 126 232 126 5 0 8 -34 8 -75z m-1479 -176 c16
-11 29 -24 29 -29 0 -9 -120 -80 -133 -80 -4 0 -7 20 -7 45 0 40 4 47 33 65
40 25 42 25 78 -1z m137 -93 c26 -13 58 -33 71 -43 l25 -20 -70 -40 c-86 -50
-281 -153 -289 -153 -9 0 7 164 18 178 12 16 168 102 185 102 7 0 34 -11 60
-24z m1302 -163 l0 -58 -153 -102 c-316 -210 -607 -399 -754 -489 -84 -51
-210 -135 -280 -187 -71 -52 -166 -118 -213 -147 -47 -29 -120 -78 -163 -108
l-78 -55 3 43 3 43 155 96 c152 95 480 334 480 350 0 26 951 670 993 671 4 0
7 -26 7 -57z m-3424 -14 c38 -12 94 -36 124 -54 30 -18 190 -102 355 -187 165
-85 390 -208 500 -275 193 -116 329 -193 598 -338 l127 -69 0 -44 c0 -52 1
-52 -135 15 -98 48 -82 31 50 -53 74 -48 80 -54 83 -89 2 -22 -1 -36 -7 -34
-16 6 -465 269 -564 332 -51 31 -152 94 -226 140 -73 45 -209 132 -301 194
-162 108 -433 265 -610 353 -47 23 -86 43 -88 45 -6 5 11 85 18 85 4 0 39 -9
76 -21z m412 -104 c204 -43 443 -118 524 -164 92 -53 248 -128 548 -266 129
-59 239 -111 243 -115 9 -7 -12 -201 -23 -213 -10 -12 -431 220 -786 434 -93
56 -276 155 -406 220 -131 66 -238 121 -238 124 0 8 14 6 138 -20z m3010 -72
c-5 -7 -78 -57 -161 -110 -251 -162 -518 -342 -771 -517 -131 -91 -283 -193
-337 -226 -54 -32 -158 -103 -230 -156 -72 -52 -132 -94 -134 -92 -2 2 -7 22
-11 45 l-6 41 93 64 c52 36 132 89 179 118 47 29 141 94 210 145 69 52 193
134 275 185 83 50 236 148 340 217 105 69 271 178 370 243 l180 117 7 -31 c3
-17 2 -36 -4 -43z m-3427 16 c107 -53 413 -224 464 -258 22 -15 83 -57 135
-93 52 -36 140 -91 195 -123 55 -32 145 -89 200 -125 55 -37 181 -114 280
-172 466 -270 434 -249 435 -285 0 -18 -3 -33 -7 -33 -23 0 -613 336 -878 499
-82 51 -202 123 -265 161 -63 37 -159 95 -213 129 -54 35 -169 99 -255 143
-215 111 -198 97 -194 152 2 25 8 46 13 46 5 0 46 -18 90 -41z m3453 -100 c12
-61 8 -67 -71 -120 -43 -29 -202 -141 -353 -249 -391 -279 -611 -427 -880
-590 -129 -78 -246 -150 -260 -159 -14 -10 -42 -28 -62 -40 l-38 -23 0 50 0
50 158 114 c86 63 213 149 282 192 69 42 231 152 360 243 129 92 332 229 450
306 118 76 256 165 305 198 50 32 93 59 96 59 4 0 9 -14 13 -31z m-3179 -207
c44 -27 166 -101 270 -164 105 -63 260 -157 345 -210 85 -52 182 -110 215
-128 33 -19 123 -70 200 -115 77 -45 199 -113 270 -150 72 -38 132 -70 135
-72 8 -7 16 -143 10 -154 -9 -14 -153 60 -490 251 -411 233 -652 389 -910 590
-69 53 -191 141 -272 195 -134 89 -148 101 -148 127 l0 29 148 -75 c81 -42
183 -97 227 -124z m50 -212 c168 -133 519 -361 835 -541 241 -137 523 -288
562 -301 11 -4 25 -98 14 -98 -3 0 -54 18 -113 40 -164 62 -335 157 -519 287
-62 44 -160 108 -218 144 -59 35 -157 101 -219 147 -62 46 -166 122 -232 170
-66 47 -149 111 -185 142 -36 31 -110 92 -165 135 -108 85 -185 154 -185 168
0 13 301 -194 425 -293z m3145 242 l0 -49 -95 -78 c-137 -113 -418 -329 -500
-384 -38 -27 -124 -81 -190 -121 -66 -40 -212 -135 -325 -211 -239 -160 -536
-349 -549 -349 -5 0 -12 30 -16 66 -6 57 -4 67 12 79 10 8 137 87 283 176 373
229 679 434 1065 714 190 138 288 204 303 204 8 1 12 -15 12 -47z m-1382 -206
c11 -11 0 -21 -63 -61 -42 -26 -112 -74 -157 -107 -44 -33 -82 -58 -84 -55 -4
4 14 164 21 184 2 6 39 32 81 56 l77 45 56 -24 c31 -14 62 -31 69 -38z m104
-62 c39 -20 46 -13 -142 -126 -74 -45 -161 -99 -192 -120 -31 -21 -62 -38 -67
-38 -6 0 -11 13 -11 29 0 25 12 38 84 92 103 77 264 179 283 179 8 0 28 -7 45
-16z"/>
<path d="M2020 5105 c0 -7 175 -112 250 -150 113 -57 617 -251 626 -242 8 8
-361 180 -536 250 -102 41 -220 91 -262 111 -43 19 -78 34 -78 31z"/>
<path d="M4875 2642 c-146 -77 -263 -147 -225 -136 48 13 305 149 355 188 41
32 -4 13 -130 -52z"/>
<path d="M4268 2280 c-59 -32 -194 -104 -300 -159 -106 -56 -179 -98 -163 -95
61 13 272 106 360 158 94 57 237 157 220 155 -6 -1 -58 -27 -117 -59z"/>
<path d="M2530 2036 c0 -7 214 -151 280 -189 48 -27 167 -75 137 -54 -150 101
-417 257 -417 243z"/>
<path d="M2655 1563 c21 -21 174 -133 240 -175 67 -43 223 -114 231 -105 2 2
-20 16 -48 32 -29 15 -107 63 -173 105 -118 76 -270 163 -250 143z"/>
</g>
</svg>
