<?xml version="1.0" encoding="UTF-8" standalone="no"?>
<svg
   xmlns:dc="http://purl.org/dc/elements/1.1/"
   xmlns:cc="http://creativecommons.org/ns#"
   xmlns:rdf="http://www.w3.org/1999/02/22-rdf-syntax-ns#"
   xmlns:svg="http://www.w3.org/2000/svg"
   xmlns="http://www.w3.org/2000/svg"
   viewBox="0 0 512 512"
   height="512"
   width="512"
   id="svg2"
   version="1.1">
  <metadata
     id="metadata8">
    <rdf:RDF>
      <cc:Work
         rdf:about="">
        <dc:format>image/svg+xml</dc:format>
        <dc:type
           rdf:resource="http://purl.org/dc/dcmitype/StillImage" />
        <dc:title></dc:title>
      </cc:Work>
    </rdf:RDF>
  </metadata>
  <defs
     id="defs6" />
  <path
     id="path4487"
     d="m 392.60165,345.42675 c -1.94622,-0.97237 -3.1433,-2.64589 -5.10348,-7.13469 -8.54809,-19.57499 -22.11175,-33.11523 -40.70994,-40.63966 -18.44377,-7.46193 -45.17603,-10.89827 -63.83313,-8.20549 -14.58773,2.10545 -29.97848,8.63031 -45.59468,19.32972 -5.10477,3.49753 -13.82122,9.46258 -19.36989,13.25569 -33.61355,22.97845 -64.63742,27.67658 -81.7871,12.38552 -8.2999,-7.40037 -11.49277,-20.51223 -7.90692,-32.4706 3.9064,-13.02737 15.60443,-24.80969 32.6793,-32.91476 12.41738,-5.89427 17.59014,-6.07378 20.33071,-0.70553 2.79396,5.47282 0.38879,11.03519 -5.78707,13.38365 -17.34513,6.59572 -30.50699,18.17743 -31.5761,27.78521 -0.72669,6.53063 3.27829,13.46882 9.3434,16.18642 10.64413,4.76931 35.27819,-3.82564 57.80436,-20.16826 16.00677,-11.61283 23.65204,-16.42649 34.51203,-21.7297 19.61444,-9.57821 35.04856,-13.287 55.11294,-13.24356 15.77309,0.0342 27.44182,1.92307 41.71067,6.75205 30.81555,10.42887 50.27367,28.09211 61.52301,55.84793 2.39236,5.90275 1.44825,10.16699 -2.73625,12.35888 -2.97651,1.55913 -5.38626,1.53875 -8.61186,-0.0728 z M 193.14266,260.48056 c -1.73983,-0.7657 -3.06893,-2.1755 -3.86078,-4.09517 -1.15818,-2.80778 -0.88001,-4.5853 6.80254,-43.46895 l 8.01011,-40.54146 76.15498,-77.19431 c 41.88524,-42.45688 77.19787,-77.75509 78.47249,-78.44048 5.38326,-2.89466 5.70281,-2.64336 37.92552,29.8255 16.36305,16.48806 30.79967,31.41304 32.08137,33.16664 2.5741,3.52184 2.94787,6.75131 1.1732,10.13694 -0.63644,1.21417 -35.22984,36.65718 -76.87423,78.76226 -58.35811,59.00368 -76.36467,76.75484 -78.54183,77.42781 -3.09972,0.95813 -76.39698,15.67254 -77.8128,15.6209 -0.48255,-0.0176 -2.0713,-0.55746 -3.53057,-1.19968 z m 52.9595,-26.28728 18.83022,-3.81174 -22.45667,-22.75809 c -12.35117,-12.51695 -22.64782,-22.75809 -22.88145,-22.75809 -0.23362,0 -2.14043,8.73237 -4.23734,19.40525 l -3.81255,19.40525 7.03987,7.16415 c 3.87194,3.94029 7.41064,7.16435 7.86379,7.16458 0.45315,2.5e-4 9.2975,-1.71484 19.65413,-3.81131 z"
     style="fill:#000000;stroke-width:0.81228244" />
  <path
     id="path4489"
     d="m 184.09954,185.45296 a 5.8922622,5.9684926 0 0 0 -4.91813,2.49087 l -41.09953,58.10939 -73.40631,33.48159 a 5.8922622,5.9684926 0 0 0 -2.950881,2.98427 l -35.018063,78.48191 a 5.8922622,5.9684926 0 0 0 2.935117,7.89259 L 306.72976,496.15046 a 5.8922622,5.9684926 0 0 0 7.22902,-1.97036 l 43.70047,-62.05806 89.11438,-39.24735 a 5.8922622,5.9684926 0 0 0 2.27464,-1.77555 l 50.77817,-65.17965 a 5.8922622,5.9684926 0 0 0 -2.47168,-9.25139 l -218.4298,-86.9062 a 5.8922622,5.9684926 0 0 0 -3.64131,-0.22035 l -49.19395,12.99889 -17.85347,-2.58349 3.05492,-38.30209 a 5.8922622,5.9684926 0 0 0 -3.45846,-5.92542 l -21.44905,-9.75436 a 5.8922622,5.9684926 0 0 0 -2.2841,-0.52212 z m 1.85376,13.41084 13.25847,6.02921 -3.16684,39.69761 a 5.8922622,5.9684926 0 0 0 5.03951,6.38847 l 24.51344,3.54632 a 5.8922622,5.9684926 0 0 0 2.32035,-0.13252 l 48.48303,-12.81208 209.25717,83.2577 -44.94261,57.68944 -89.25311,39.30802 a 5.8922622,5.9684926 0 0 0 -2.44646,2.00708 L 307.18059,483.25216 39.868941,360.48525 71.545195,289.49195 144.36669,256.27701 a 5.8922622,5.9684926 0 0 0 2.37079,-1.96556 z"
     style="color:#000000;font-style:normal;font-variant:normal;font-weight:normal;font-stretch:normal;font-size:medium;line-height:normal;font-family:sans-serif;font-variant-ligatures:normal;font-variant-position:normal;font-variant-caps:normal;font-variant-numeric:normal;font-variant-alternates:normal;font-feature-settings:normal;text-indent:0;text-align:start;text-decoration:none;text-decoration-line:none;text-decoration-style:solid;text-decoration-color:#000000;letter-spacing:normal;word-spacing:normal;text-transform:none;writing-mode:lr-tb;direction:ltr;text-orientation:mixed;dominant-baseline:auto;baseline-shift:baseline;text-anchor:start;white-space:normal;shape-padding:0;clip-rule:nonzero;display:inline;overflow:visible;visibility:visible;opacity:1;isolation:auto;mix-blend-mode:normal;color-interpolation:sRGB;color-interpolation-filters:linearRGB;solid-color:#000000;solid-opacity:1;vector-effect:none;fill:#000000;fill-opacity:1;fill-rule:nonzero;stroke:none;stroke-width:11.8593235;stroke-linecap:butt;stroke-linejoin:round;stroke-miterlimit:4;stroke-dasharray:none;stroke-dashoffset:0;stroke-opacity:1;color-rendering:auto;image-rendering:auto;shape-rendering:auto;text-rendering:auto;enable-background:accumulate" />
  <path
     id="path4491"
     d="m 67.271777,284.60918 -0.354673,0.7345 286.717786,142.33149 0.35467,-0.73448 z"
     style="color:#000000;font-style:normal;font-variant:normal;font-weight:normal;font-stretch:normal;font-size:medium;line-height:normal;font-family:sans-serif;font-variant-ligatures:normal;font-variant-position:normal;font-variant-caps:normal;font-variant-numeric:normal;font-variant-alternates:normal;font-feature-settings:normal;text-indent:0;text-align:start;text-decoration:none;text-decoration-line:none;text-decoration-style:solid;text-decoration-color:#000000;letter-spacing:normal;word-spacing:normal;text-transform:none;writing-mode:lr-tb;direction:ltr;text-orientation:mixed;dominant-baseline:auto;baseline-shift:baseline;text-anchor:start;white-space:normal;shape-padding:0;clip-rule:nonzero;display:inline;overflow:visible;visibility:visible;opacity:1;isolation:auto;mix-blend-mode:normal;color-interpolation:sRGB;color-interpolation-filters:linearRGB;solid-color:#000000;solid-opacity:1;vector-effect:none;fill:#000000;fill-opacity:1;fill-rule:nonzero;stroke:none;stroke-width:0.81228244px;stroke-linecap:butt;stroke-linejoin:miter;stroke-miterlimit:4;stroke-dasharray:none;stroke-dashoffset:0;stroke-opacity:1;color-rendering:auto;image-rendering:auto;shape-rendering:auto;text-rendering:auto;enable-background:accumulate" />
  <path
     id="path4493"
     d="m 142.11097,250.46176 -0.32788,0.74726 302.47631,136.56735 0.32945,-0.74727 z"
     style="color:#000000;font-style:normal;font-variant:normal;font-weight:normal;font-stretch:normal;font-size:medium;line-height:normal;font-family:sans-serif;font-variant-ligatures:normal;font-variant-position:normal;font-variant-caps:normal;font-variant-numeric:normal;font-variant-alternates:normal;font-feature-settings:normal;text-indent:0;text-align:start;text-decoration:none;text-decoration-line:none;text-decoration-style:solid;text-decoration-color:#000000;letter-spacing:normal;word-spacing:normal;text-transform:none;writing-mode:lr-tb;direction:ltr;text-orientation:mixed;dominant-baseline:auto;baseline-shift:baseline;text-anchor:start;white-space:normal;shape-padding:0;clip-rule:nonzero;display:inline;overflow:visible;visibility:visible;opacity:1;isolation:auto;mix-blend-mode:normal;color-interpolation:sRGB;color-interpolation-filters:linearRGB;solid-color:#000000;solid-opacity:1;vector-effect:none;fill:#000000;fill-opacity:1;fill-rule:nonzero;stroke:none;stroke-width:0.81228244px;stroke-linecap:butt;stroke-linejoin:miter;stroke-miterlimit:4;stroke-dasharray:none;stroke-dashoffset:0;stroke-opacity:1;color-rendering:auto;image-rendering:auto;shape-rendering:auto;text-rendering:auto;enable-background:accumulate" />
</svg>
