<?xml version="1.0" standalone="no"?>
<!DOCTYPE svg PUBLIC "-//W3C//DTD SVG 20010904//EN"
 "http://www.w3.org/TR/2001/REC-SVG-20010904/DTD/svg10.dtd">
<svg version="1.0" xmlns="http://www.w3.org/2000/svg"
 width="700.000000pt" height="700.000000pt" viewBox="0 0 700.000000 700.000000"
 preserveAspectRatio="xMidYMid meet">
<metadata>
Created by potrace 1.11, written by Peter Selinger 2001-2013
</metadata>
<g transform="translate(0.000000,700.000000) scale(0.100000,-0.100000)"
fill="#000000" stroke="none">
<path d="M4921 6779 c-23 -9 -716 -701 -1631 -1628 -529 -536 -505 -508 -523
-623 -3 -18 -8 -42 -10 -53 -3 -11 -8 -39 -12 -61 l-6 -42 -107 48 c-147 66
-144 67 -287 -138 -128 -183 -263 -373 -278 -392 -7 -9 -25 -36 -42 -60 -16
-25 -34 -50 -40 -57 -5 -6 -30 -41 -55 -77 -25 -36 -48 -66 -52 -66 -3 0 -44
-18 -90 -39 -106 -50 -200 -93 -313 -143 -49 -23 -128 -58 -175 -80 -47 -22
-165 -76 -263 -120 l-177 -80 -35 -74 c-20 -41 -60 -129 -89 -197 -29 -67 -68
-152 -85 -190 -17 -37 -31 -69 -31 -72 0 -2 -18 -43 -41 -92 -91 -196 -219
-492 -219 -508 0 -9 6 -28 14 -43 14 -27 28 -35 226 -125 71 -33 853 -392 990
-455 36 -16 90 -41 120 -55 30 -13 84 -38 120 -55 36 -16 180 -83 320 -147
341 -157 366 -168 430 -197 76 -35 540 -249 620 -286 36 -16 115 -52 175 -80
61 -27 154 -71 208 -96 55 -25 100 -46 102 -46 2 0 53 -23 112 -51 59 -28 122
-57 138 -64 17 -7 80 -37 140 -65 61 -28 122 -54 137 -57 29 -6 81 20 95 47
14 28 576 824 587 832 6 4 126 58 266 119 140 61 280 123 310 136 30 14 89 40
130 58 41 18 105 47 143 64 37 17 69 31 72 31 2 0 32 13 67 29 35 16 97 43
138 61 41 18 85 39 97 47 12 8 138 164 280 346 142 182 292 374 332 427 102
130 121 159 121 186 0 44 -40 71 -200 135 -247 97 -403 159 -425 168 -121 50
-292 118 -1055 420 -487 194 -894 356 -905 361 -11 5 -69 28 -130 51 -60 23
-114 45 -120 49 -5 4 -23 10 -38 14 -16 4 -27 11 -25 15 2 5 271 279 598 609
757 762 1180 1194 1298 1324 47 53 54 91 26 148 -18 35 -795 820 -854 863 -44
31 -69 38 -99 26z m-1305 -2926 c-2 -2 -12 -5 -22 -7 -11 -2 -73 -15 -139 -29
-66 -14 -133 -28 -150 -31 -16 -2 -72 -13 -123 -22 l-93 -18 -98 98 -98 98 9
46 c4 26 10 57 13 69 2 13 11 58 19 100 9 43 18 87 20 98 3 11 14 62 25 112
12 51 21 96 21 100 0 4 139 -131 310 -302 170 -170 308 -311 306 -312z m-992
392 c42 -20 76 -41 76 -48 0 -7 -11 -68 -25 -137 -13 -69 -27 -141 -30 -160
-3 -19 -10 -54 -16 -78 -5 -23 -11 -57 -14 -75 -2 -17 -9 -57 -15 -87 -22
-114 -22 -143 0 -178 23 -38 72 -62 110 -55 14 2 84 16 155 30 72 14 141 27
155 29 14 3 113 22 220 44 107 22 265 54 350 71 114 23 163 38 187 55 17 13
34 24 38 24 6 0 180 -66 210 -80 11 -5 225 -91 475 -190 250 -99 464 -184 475
-189 11 -5 306 -123 655 -261 349 -138 678 -269 730 -290 52 -21 136 -55 187
-75 l91 -37 -66 -87 c-37 -47 -72 -93 -79 -101 -20 -25 -316 -405 -343 -440
-74 -98 -124 -156 -143 -166 -26 -14 -15 -18 -232 81 -27 13 -167 76 -310 140
-143 64 -287 129 -320 145 -33 15 -82 38 -110 50 -27 12 -82 37 -122 56 -40
19 -75 34 -77 34 -3 0 -44 18 -93 41 -99 46 -126 58 -198 89 -27 13 -77 35
-110 50 -33 15 -107 49 -165 75 -58 25 -134 60 -170 77 -36 17 -83 38 -105 48
-22 10 -65 29 -95 43 -30 14 -120 54 -200 90 -80 36 -170 76 -200 90 l-55 25
75 35 c177 82 341 119 530 119 245 1 486 -42 685 -121 247 -99 403 -248 543
-516 34 -66 70 -125 81 -132 36 -22 84 -25 121 -6 74 38 75 101 6 245 -53 110
-66 132 -129 217 -124 169 -286 298 -497 398 -139 66 -376 134 -525 151 -129
15 -440 7 -528 -13 -12 -3 -33 -7 -47 -9 -116 -21 -281 -84 -458 -176 l-133
-69 -127 58 c-132 61 -196 89 -272 123 -48 22 -102 46 -215 98 -38 17 -81 42
-95 55 -14 13 -43 25 -65 28 -35 5 -108 35 -328 136 l-48 22 37 52 c41 56 201
283 248 351 139 199 237 336 242 336 0 0 36 -16 78 -35z m-456 -784 c153 -68
193 -91 159 -91 -27 0 -201 -85 -276 -134 -87 -58 -183 -153 -233 -230 -45
-69 -80 -175 -81 -247 -1 -27 -5 -49 -8 -49 -4 0 -145 69 -315 153 -170 85
-326 162 -346 172 -21 9 -38 21 -38 25 0 4 24 18 53 30 28 12 90 40 137 62 47
22 130 60 185 85 136 61 168 76 255 116 76 35 136 62 266 122 39 18 74 37 78
44 4 6 8 11 9 11 2 0 71 -31 155 -69z m455 -205 c55 -25 101 -46 103 -46 4 0
222 -100 332 -151 34 -16 72 -33 84 -38 18 -6 6 -18 -93 -85 -63 -42 -163
-111 -224 -152 -161 -110 -384 -214 -510 -239 -172 -34 -268 -2 -323 108 -78
157 55 332 361 476 99 46 109 53 126 92 11 24 17 54 14 71 -4 26 -2 28 14 20
10 -6 62 -31 116 -56z m-1248 -385 l363 -180 6 -45 c22 -148 151 -277 319
-321 87 -23 253 -20 346 5 38 10 -64 60 1609 -772 l743 -369 -34 -47 c-41 -56
-258 -364 -336 -477 -176 -252 -193 -274 -210 -264 -20 11 -231 109 -236 109
-2 0 -60 27 -130 60 -70 33 -128 60 -130 60 -1 0 -45 20 -96 43 -94 44 -139
64 -256 118 -35 16 -93 43 -130 60 -38 17 -120 55 -183 84 -63 29 -144 66
-180 83 -36 16 -96 44 -135 62 -58 27 -301 138 -615 282 -36 17 -173 80 -305
140 -132 61 -278 128 -323 149 -46 21 -85 39 -87 39 -2 0 -57 25 -122 56 -65
31 -161 75 -213 99 -52 24 -129 59 -170 78 -115 53 -189 87 -259 118 -49 23
-62 33 -58 47 5 17 229 516 268 598 10 22 19 43 19 46 0 3 23 54 50 112 28 58
50 109 50 111 0 20 45 95 57 95 8 0 178 -81 378 -179z m2091 5 c25 -13 97 -45
283 -128 25 -11 71 -32 101 -45 30 -14 129 -59 220 -99 91 -41 179 -81 195
-89 63 -30 197 -90 375 -170 387 -173 485 -217 495 -224 6 -4 26 -14 45 -21
19 -7 78 -33 130 -58 52 -24 115 -52 140 -62 25 -10 63 -27 85 -38 22 -11 63
-30 90 -42 46 -20 338 -152 342 -154 1 -1 -64 -30 -145 -65 -81 -35 -174 -77
-207 -92 -33 -15 -114 -50 -180 -79 -99 -43 -358 -157 -490 -215 -126 -56
-152 -68 -166 -81 -13 -12 -65 11 -410 182 -793 395 -1714 851 -1724 855 -5 2
-48 24 -95 48 l-84 43 102 39 c159 59 311 144 528 295 113 79 324 214 334 214
4 0 20 -6 36 -14z"/>
</g>
</svg>
