<?xml version="1.0" standalone="no"?>
<!DOCTYPE svg PUBLIC "-//W3C//DTD SVG 20010904//EN"
 "http://www.w3.org/TR/2001/REC-SVG-20010904/DTD/svg10.dtd">
<svg version="1.0" xmlns="http://www.w3.org/2000/svg"
 width="700.000000pt" height="700.000000pt" viewBox="0 0 700.000000 700.000000"
 preserveAspectRatio="xMidYMid meet">
<metadata>
Created by potrace 1.11, written by Peter Selinger 2001-2013
</metadata>
<g transform="translate(0.000000,700.000000) scale(0.100000,-0.100000)"
fill="#000000" stroke="none">
<path d="M2396 5318 c-13 -13 -145 -194 -292 -403 -147 -209 -272 -386 -278
-392 -7 -7 -239 -117 -516 -243 -278 -127 -511 -236 -517 -243 -20 -20 -503
-1109 -503 -1133 0 -13 10 -34 22 -48 33 -35 3805 -1766 3851 -1766 22 0 40 8
54 22 11 13 151 210 312 439 l292 417 619 272 618 272 354 454 c379 487 379
486 340 550 -17 26 -51 43 -248 124 -126 51 -296 121 -379 155 -82 34 -240
100 -350 145 -1315 544 -2616 1092 -3151 1329 -89 39 -171 71 -182 71 -12 0
-32 -10 -46 -22z m976 -539 c847 -356 1279 -538 2173 -913 1110 -467 1025
-429 1012 -448 -7 -10 -145 -189 -307 -397 -190 -245 -303 -382 -318 -385 -21
-6 -195 70 -1407 619 -148 67 -438 198 -642 290 -205 92 -373 171 -373 175 0
11 74 37 186 66 233 60 587 37 883 -58 297 -95 486 -260 632 -549 45 -90 66
-122 88 -134 41 -21 90 -19 128 5 60 36 57 101 -10 242 -64 137 -137 240 -246
349 -380 381 -1073 531 -1622 349 -64 -21 -166 -62 -226 -90 l-111 -52 -626
283 c-344 155 -626 286 -626 291 0 9 466 674 498 711 8 9 19 17 24 17 4 0 405
-167 890 -371z m-730 -687 c302 -136 548 -249 548 -252 0 -3 -30 -23 -67 -45
-36 -21 -134 -86 -217 -144 -83 -59 -186 -128 -228 -154 -149 -92 -377 -188
-447 -187 -14 1 -93 36 -176 78 l-150 77 -3 39 c-5 60 24 121 90 192 72 77
161 137 288 197 131 61 165 106 140 183 -24 72 -82 89 -181 55 -218 -75 -434
-243 -512 -400 -20 -40 -39 -88 -43 -107 -3 -19 -10 -36 -14 -39 -3 -2 -166
74 -360 171 -194 96 -354 173 -356 171 -2 -1 158 -83 355 -182 l359 -179 4
-90 c3 -76 9 -102 35 -158 59 -126 166 -203 327 -234 74 -15 102 -16 190 -6
58 6 145 25 195 41 l92 29 1090 -541 1091 -542 -278 -395 c-152 -217 -278
-396 -280 -398 -1 -2 -332 148 -735 333 -1464 672 -1959 899 -2204 1012 -137
64 -353 163 -480 220 -126 58 -232 107 -234 109 -4 4 417 954 429 967 3 4 233
111 510 237 278 127 508 237 512 245 7 12 22 8 86 -21 42 -19 323 -146 624
-282z m2056 -927 c655 -297 1192 -541 1192 -544 0 -4 -261 -121 -580 -260
-319 -140 -586 -262 -594 -270 -18 -17 -29 -12 -1329 634 l-858 426 128 64
c70 35 196 109 278 165 277 188 344 231 437 281 51 27 102 48 113 46 11 -2
557 -246 1213 -542z m-2638 205 l135 -69 -68 0 c-77 -1 -120 15 -159 57 -33
35 -63 82 -52 81 5 0 70 -31 144 -69z"/>
</g>
</svg>
